<?xml version="1.0" encoding="UTF-8" standalone="no"?>
<!-- Created with Inkscape (http://www.inkscape.org/) -->

<svg
   xmlns:ns1="http://www.iki.fi/pav/software/textext/"
   xmlns:dc="http://purl.org/dc/elements/1.1/"
   xmlns:cc="http://creativecommons.org/ns#"
   xmlns:rdf="http://www.w3.org/1999/02/22-rdf-syntax-ns#"
   xmlns:svg="http://www.w3.org/2000/svg"
   xmlns="http://www.w3.org/2000/svg"
   xmlns:sodipodi="http://sodipodi.sourceforge.net/DTD/sodipodi-0.dtd"
   xmlns:inkscape="http://www.inkscape.org/namespaces/inkscape"
   version="1.1"
   id="svg2"
   xml:space="preserve"
   width="124.34249"
   height="120.29654"
   viewBox="0 0 124.34249 120.29654"
   sodipodi:docname="singular_beta.svg"
   inkscape:version="0.92.4 (5da689c313, 2019-01-14)"><metadata
     id="metadata8"><rdf:RDF><cc:Work
         rdf:about=""><dc:format>image/svg+xml</dc:format><dc:type
           rdf:resource="http://purl.org/dc/dcmitype/StillImage" /><dc:title></dc:title></cc:Work></rdf:RDF></metadata><defs
     id="defs6"><inkscape:path-effect
       oposite_fuse="false"
       fuse_paths="false"
       discard_orig_path="false"
       mode="free"
       is_visible="true"
       id="path-effect4732"
       center_point="-28.34681,-28.346809"
       end_point="-56.69362,-56.693619"
       start_point="5.567998e-08,6.748667e-07"
       effect="mirror_symmetry" /><inkscape:path-effect
       effect="mirror_symmetry"
       start_point="1.1135996e-07,3.4973341e-07"
       end_point="-56.69362,-56.693619"
       center_point="-28.34681,-28.346809"
       id="path-effect4726"
       is_visible="true"
       mode="free"
       discard_orig_path="false"
       fuse_paths="false"
       oposite_fuse="false" /></defs><sodipodi:namedview
     pagecolor="#ffffff"
     bordercolor="#666666"
     borderopacity="1"
     objecttolerance="10"
     gridtolerance="10"
     guidetolerance="10"
     inkscape:pageopacity="0"
     inkscape:pageshadow="2"
     inkscape:window-width="1920"
     inkscape:window-height="1027"
     id="namedview4"
     showgrid="false"
     inkscape:zoom="5.7039034"
     inkscape:cx="29.262178"
     inkscape:cy="55.742468"
     inkscape:window-x="-8"
     inkscape:window-y="-8"
     inkscape:window-maximized="1"
     inkscape:current-layer="g146"
     fit-margin-left="5"
     fit-margin-top="5"
     fit-margin-bottom="5"
     fit-margin-right="5" /><g
     id="g10"
     inkscape:groupmode="layer"
     inkscape:label="54245"
     transform="matrix(1.3333333,0,0,-1.3333333,43.2195,81.122991)"><g
       id="g12"><g
         id="g16"><path
           inkscape:connector-curvature="0"
           id="path18"
           style="fill:#bfbfbf;fill-opacity:1;fill-rule:nonzero;stroke:#000000;stroke-width:0.79725003;stroke-linecap:butt;stroke-linejoin:miter;stroke-miterlimit:10;stroke-dasharray:0, 8.76975022;stroke-dashoffset:0;stroke-opacity:1"
           d="M 0,0 H 56.69362 V -15.04006 L 7.1105242,-25.217291 -28.242751,-12.622666 -22.664149,56.69362 H 0 V 0"
           sodipodi:nodetypes="cccccccc" /><g
           id="g40" /><path
           style="fill:none;stroke:#000000;stroke-width:0.75px;stroke-linecap:butt;stroke-linejoin:miter;stroke-opacity:1"
           d="M 1.1135996e-7,56.69362 V 3.4973341e-7 H 56.693621"
           id="path4846"
           inkscape:connector-curvature="0" /></g><g
         id="g140"><g
           id="g4738"><path
             inkscape:connector-curvature="0"
             id="path4730"
             style="fill:none;stroke:#000000;stroke-width:0.79725003;stroke-linecap:butt;stroke-linejoin:miter;stroke-miterlimit:10;stroke-dasharray:none;stroke-opacity:1"
             d="M 28.34679,0 C 28.281046,16.085413 16.379019,28.122784 1.4243956e-7,28.34679"
             sodipodi:nodetypes="cc" /><g
             inkscape:transform-center-y="0.20098797"
             inkscape:transform-center-x="-2.6291249"
             id="g144"
             transform="matrix(-0.99979255,0.01981952,-0.01981952,-0.99979255,2.5897228,28.295452)"><g
               id="g146"><path
                 sodipodi:nodetypes="cccc"
                 d="M 2.59026,0 -1.55415,2.0722 0,0 -1.55415,-2.0722"
                 style="fill:#000000;fill-opacity:1;fill-rule:nonzero;stroke:none"
                 id="path148"
                 inkscape:connector-curvature="0" /><path
                 sodipodi:nodetypes="cccc"
                 d="m -26.313106,27.779702 -1.823654,-4.259629 1.976732,1.673896 2.160425,-1.428971"
                 style="fill:#000000;fill-opacity:1;fill-rule:nonzero;stroke:none;stroke-width:1"
                 id="path148-8"
                 inkscape:connector-curvature="0" /></g></g></g></g><g
         id="g244"
         transform="translate(17.46093,31.404698)"><g
           transform="translate(-32.422,-31.75)"
           id="g246"><g
             id="g248"><g
               transform="translate(-28.004,-63.155)"
               id="g250"><text
   id="text254"
   style="font-variant:normal;font-weight:normal;font-size:9.96259975px;font-family:CMTI10;-inkscape-font-specification:CMTI10;writing-mode:lr-tb;fill:#000000;fill-opacity:1;fill-rule:nonzero;stroke:none"
   transform="matrix(1,0,0,-1,28.004,63.155)"><tspan
     id="tspan252"
     y="0"
     x="0">Ω</tspan></text>



<g
   transform="translate(28.004,63.155)"
   id="g256" /></g></g><g
             transform="translate(32.422,31.75)"
             id="g258" /></g></g><g
         id="g396"><g
           id="g398" /><g
           transform="translate(23.966,-7.135)"
           id="g400"><g
             id="g402" /><g
             transform="translate(-23.966,7.135)"
             id="g404" /></g></g><g
         id="g4780"
         ns1:jacobian_sqrt="1.333333"
         inkscapeversion="0.92.4"
         ns1:alignment="middle center"
         ns1:scale="1.0"
         ns1:preamble="C:\\Users\\johan\\AppData\\Roaming\\inkscape\\extensions\\textext\\default_packages.tex"
         ns1:text="$\\beta$"
         ns1:pdfconverter="pdf2svg"
         ns1:texconverter="pdflatex"
         ns1:version="0.11.0"
         transform="matrix(1.333333,0,0,1.333333,-89.780109,-59.264124)"><g
           id="surface1"
           transform="matrix(1,0,0,-1,-60.945143,191.06542)"><g
             id="g4777"
             style="fill:#000000;fill-opacity:1"><path
               id="path4775"
               transform="translate(148.712,134.765)"
               d="m 5.734375,-5.671875 c 0,-0.75 -0.546875,-1.359375 -1.359375,-1.359375 -0.578125,0 -0.859375,0.15625 -1.203125,0.40625 C 2.625,-6.21875 2.078125,-5.25 1.890625,-4.5 L 0.296875,1.828125 C 0.296875,1.875 0.34375,1.9375 0.421875,1.9375 0.5,1.9375 0.53125,1.90625 0.53125,1.890625 L 1.234375,-0.875 c 0.1875,0.609375 0.625,0.96875 1.359375,0.96875 C 3.3125,0.09375 4.0625,-0.25 4.515625,-0.6875 5,-1.140625 5.3125,-1.78125 5.3125,-2.515625 c 0,-0.71875 -0.375,-1.25 -0.734375,-1.484375 0.578125,-0.34375 1.15625,-0.953125 1.15625,-1.671875 z M 3.9375,-4.015625 c -0.125,0.046875 -0.234375,0.0625 -0.484375,0.0625 -0.140625,0 -0.328125,0.015625 -0.4375,-0.03125 0.03125,-0.109375 0.390625,-0.078125 0.5,-0.078125 0.203125,0 0.296875,0 0.421875,0.046875 z M 5.171875,-5.90625 c 0,0.703125 -0.375,1.421875 -0.890625,1.734375 C 4,-4.28125 3.8125,-4.296875 3.515625,-4.296875 c -0.21875,0 -0.78125,-0.015625 -0.78125,0.3125 0,0.28125 0.515625,0.25 0.6875,0.25 0.375,0 0.53125,0 0.828125,-0.125 0.375,0.359375 0.421875,0.671875 0.4375,1.125 0.015625,0.578125 -0.21875,1.328125 -0.5,1.71875 C 3.796875,-0.484375 3.125,-0.125 2.5625,-0.125 c -0.765625,0 -1.140625,-0.578125 -1.140625,-1.28125 0,-0.09375 0,-0.25 0.046875,-0.4375 L 2.109375,-4.359375 C 2.328125,-5.21875 3.046875,-6.8125 4.25,-6.8125 c 0.578125,0 0.921875,0.3125 0.921875,0.90625 z m 0,0"
               style="stroke:none;stroke-width:0"
               inkscape:connector-curvature="0" /></g></g></g></g></g></svg>